<mxfile host="app.diagrams.net" agent="Mozilla/5.0 (Windows NT 10.0; Win64; x64) AppleWebKit/537.36 (KHTML, like Gecko) Chrome/134.0.0.0 Safari/537.36 Edg/134.0.0.0" version="26.1.1">
  <diagram name="第 1 页" id="W2hzdXaxRCACEvIiYpvY">
    <mxGraphModel dx="1039" dy="414" grid="0" gridSize="10" guides="1" tooltips="1" connect="1" arrows="1" fold="1" page="0" pageScale="1" pageWidth="827" pageHeight="1169" math="0" shadow="0">
      <root>
        <mxCell id="0" />
        <mxCell id="1" parent="0" />
        <mxCell id="9vySundK5Msms9GkJIlE-1" value="" style="edgeStyle=none;curved=1;rounded=0;orthogonalLoop=1;jettySize=auto;html=1;fontSize=12;startSize=8;endSize=8;" edge="1" parent="1" source="9vySundK5Msms9GkJIlE-2" target="9vySundK5Msms9GkJIlE-5">
          <mxGeometry relative="1" as="geometry" />
        </mxCell>
        <mxCell id="9vySundK5Msms9GkJIlE-2" value="&#39;SerialConsoleWriteString(&quot;Hello&quot;)&#39;" style="rounded=1;whiteSpace=wrap;html=1;" vertex="1" parent="1">
          <mxGeometry x="90" y="199" width="193" height="60" as="geometry" />
        </mxCell>
        <mxCell id="9vySundK5Msms9GkJIlE-3" value="UART Transmission Program Flow Diagram" style="text;html=1;align=center;verticalAlign=middle;whiteSpace=wrap;rounded=0;" vertex="1" parent="1">
          <mxGeometry x="116.5" y="151" width="140" height="30" as="geometry" />
        </mxCell>
        <mxCell id="9vySundK5Msms9GkJIlE-4" value="" style="edgeStyle=none;curved=1;rounded=0;orthogonalLoop=1;jettySize=auto;html=1;fontSize=12;startSize=8;endSize=8;" edge="1" parent="1" source="9vySundK5Msms9GkJIlE-5" target="9vySundK5Msms9GkJIlE-7">
          <mxGeometry relative="1" as="geometry" />
        </mxCell>
        <mxCell id="9vySundK5Msms9GkJIlE-5" value="&lt;div&gt;Loop puts each character in &#39;cbufTx&#39;&lt;/div&gt;&lt;div&gt;Calls: &#39;circular_buf_put(cbufTx, char)&#39;&lt;/div&gt;" style="whiteSpace=wrap;html=1;rounded=1;" vertex="1" parent="1">
          <mxGeometry x="75.5" y="292" width="222" height="60" as="geometry" />
        </mxCell>
        <mxCell id="9vySundK5Msms9GkJIlE-6" value="" style="edgeStyle=none;curved=1;rounded=0;orthogonalLoop=1;jettySize=auto;html=1;fontSize=12;startSize=8;endSize=8;" edge="1" parent="1" source="9vySundK5Msms9GkJIlE-7" target="9vySundK5Msms9GkJIlE-9">
          <mxGeometry relative="1" as="geometry" />
        </mxCell>
        <mxCell id="9vySundK5Msms9GkJIlE-7" value="&lt;div&gt;Checks if TX line is free&lt;/div&gt;&lt;div&gt;If free: &#39;circular_buf_get(cbufTx, &amp;amp;latestTx)&#39;&lt;/div&gt;" style="whiteSpace=wrap;html=1;rounded=1;" vertex="1" parent="1">
          <mxGeometry x="75.5" y="386" width="222" height="60" as="geometry" />
        </mxCell>
        <mxCell id="9vySundK5Msms9GkJIlE-8" value="" style="edgeStyle=none;curved=1;rounded=0;orthogonalLoop=1;jettySize=auto;html=1;fontSize=12;startSize=8;endSize=8;" edge="1" parent="1" source="9vySundK5Msms9GkJIlE-9" target="9vySundK5Msms9GkJIlE-11">
          <mxGeometry relative="1" as="geometry" />
        </mxCell>
        <mxCell id="9vySundK5Msms9GkJIlE-9" value="&lt;div&gt;&#39;usart_write_buffer_job(&amp;amp;usart_instance, &amp;amp;latestTx, 1)&#39;&lt;/div&gt;&lt;div&gt;Starts sending first character via UART&lt;/div&gt;" style="whiteSpace=wrap;html=1;rounded=1;" vertex="1" parent="1">
          <mxGeometry x="71.5" y="479" width="230" height="60" as="geometry" />
        </mxCell>
        <mxCell id="9vySundK5Msms9GkJIlE-10" value="" style="edgeStyle=none;curved=1;rounded=0;orthogonalLoop=1;jettySize=auto;html=1;fontSize=12;startSize=8;endSize=8;" edge="1" parent="1" source="9vySundK5Msms9GkJIlE-11" target="9vySundK5Msms9GkJIlE-13">
          <mxGeometry relative="1" as="geometry" />
        </mxCell>
        <mxCell id="9vySundK5Msms9GkJIlE-11" value="&lt;div&gt;When TX complete → interrupt triggers write callback&lt;/div&gt;&lt;div&gt;&#39;usart_write_callback(struct usart_module *const usart_module)&#39;&lt;/div&gt;" style="whiteSpace=wrap;html=1;rounded=1;" vertex="1" parent="1">
          <mxGeometry x="73" y="573" width="227" height="60" as="geometry" />
        </mxCell>
        <mxCell id="9vySundK5Msms9GkJIlE-12" value="" style="edgeStyle=none;curved=1;rounded=0;orthogonalLoop=1;jettySize=auto;html=1;fontSize=12;startSize=8;endSize=8;" edge="1" parent="1" source="9vySundK5Msms9GkJIlE-13" target="9vySundK5Msms9GkJIlE-15">
          <mxGeometry relative="1" as="geometry" />
        </mxCell>
        <mxCell id="9vySundK5Msms9GkJIlE-13" value="&lt;div&gt;Next char is retrieved and sent&lt;/div&gt;&lt;div&gt;Calls: &#39;circular_buf_get(cbufTx, &amp;amp;latestTx)&#39;&lt;/div&gt;&lt;div&gt;Then: &#39;usart_write_buffer_job(...)&#39;&lt;/div&gt;" style="whiteSpace=wrap;html=1;rounded=1;" vertex="1" parent="1">
          <mxGeometry x="79.5" y="666" width="214" height="60" as="geometry" />
        </mxCell>
        <mxCell id="9vySundK5Msms9GkJIlE-14" value="" style="edgeStyle=none;curved=1;rounded=0;orthogonalLoop=1;jettySize=auto;html=1;fontSize=12;startSize=8;endSize=8;" edge="1" parent="1" source="9vySundK5Msms9GkJIlE-15" target="9vySundK5Msms9GkJIlE-17">
          <mxGeometry relative="1" as="geometry" />
        </mxCell>
        <mxCell id="9vySundK5Msms9GkJIlE-15" value="Characters are transmitted one by one" style="whiteSpace=wrap;html=1;rounded=1;" vertex="1" parent="1">
          <mxGeometry x="96.5" y="760" width="180" height="60" as="geometry" />
        </mxCell>
        <mxCell id="9vySundK5Msms9GkJIlE-17" value="Displayed on PC screen (e.g., TeraTerm)" style="whiteSpace=wrap;html=1;rounded=1;" vertex="1" parent="1">
          <mxGeometry x="96.5" y="853" width="180" height="60" as="geometry" />
        </mxCell>
      </root>
    </mxGraphModel>
  </diagram>
</mxfile>
